<svg id="Layer_1" data-name="Layer 1" xmlns="http://www.w3.org/2000/svg" width="116.5" height="116.5" viewBox="0 0 116.5 116.5"><defs><style>.cls-1{fill:#fff;stroke:#fff;stroke-miterlimit:10;}</style></defs><path class="cls-1" d="M27.89,58.12c-.85-.17-1.8-.08-2-1.19-.05-.34-.13-.72.31-.73,1,0,2.14-.43,2.9.66a1.67,1.67,0,0,0,1.51.74c1.19,0,2.19.89,3.39.79.77-.07,1.86.52,2-1,0-.24.61-.42.93-.62,0-.08,0-.17-.09-.21-.28-.25-1,.1-1-.41s.62-.55,1-.65a16.37,16.37,0,0,1,3.5-.14c.9,0,1.79,0,2.68,0,0-.48-.65-.3-.43-.74a.86.86,0,0,1,.69-.57L45.51,54a2.63,2.63,0,0,0,1.28-.17c-.48-.4-1.11,0-1.46-.5a1.32,1.32,0,0,1,1.07-.36c4.18-.15,8.31-1.1,12.51-.82a19.88,19.88,0,0,1,6.33,1,8.6,8.6,0,0,0,3.14.12,10.91,10.91,0,0,1,2.79.26c.77.21,1,.49.06,1a3.66,3.66,0,0,0,1.57.18c.59,0,1.26,0,1,1-.13.49.29.48.59.45a9.65,9.65,0,0,1,4.89,1.15A10.9,10.9,0,0,0,86,58.27c.42-.08.71-.1.85-.71.23-1,2.76-1.93,3.7-1.5.1,0,.27.18.26.2a6,6,0,0,0-.22,1.92c-.06.55-.88.47-1.42.51-.83.07-1.73-.26-2.49.37.16.46.89,0,.89.54s-.58.6-.94.75c-2.39,1-4.91.71-7.4.57-2.7-.15-5.37-.47-8-.87-.72-.11-1.18-.06-1,.85.12.48.18,1-.53,1s-1.61.34-1.69-.54c-.15-1.64-1.13-1.61-2.37-1.79A60.13,60.13,0,0,0,51,59.16c-1,.11-1.58.35-1.54,1.47S49.05,62.11,48,62c-.9,0-1.46-.16-1.15-1.27.22-.82-.35-.77-.9-.7-3.29.45-6.6.8-9.92.94-2.17.09-4.31.11-6.28-1a3.87,3.87,0,0,0-1.84-.27,2.8,2.8,0,0,1-.92-.11c-.42-.17-1-.38-1-.88s.7-.28,1.09-.36A1.1,1.1,0,0,0,27.89,58.12Zm31.39-3.43a19.39,19.39,0,0,0-5.45.52c-2.53.8-5.18.53-7.8.58-.77,0-.76,0-1.23.76a1,1,0,0,1-.5.28c-.41.13-.83.21-1.24.34s-.93,0-.83.59.6.24.93.22c2-.08,3.83-.69,5.78-.87,4.31-.4,8.61-1.06,13-.59,3.6.39,7.21.79,10.82,1.17.37,0,.9.34,1-.42s-.29-.87-.92-.86-1.36.27-1.8-.22a2.77,2.77,0,0,0-1.78-.74C65.72,54.81,62.19,55,59.28,54.69Z"/><path class="cls-1" d="M84.72,33.47c-.37,1-1.26.78-2,.73-1.92-.12-3.68-.64-4.76-2.42-.17-.28-.63-.48-.39-.89s.56-.19.86-.22.7.11,1.12-.3a7,7,0,0,0-2.19-.18c-.42,0-.9,0-1.06-.52a1,1,0,0,1,.23-1,1.1,1.1,0,0,1,1.25-.39,3.88,3.88,0,0,1,1.37.88c.71.66,1.92,1,2.31.4S80.68,28.5,80.18,28a1.08,1.08,0,0,0-.74-.29c-2.35.18-3.58-1.9-5.46-2.67a.7.7,0,0,1-.21-.25c.87-.79-.29-.93-.53-1.43.68-.34,1.36-.11,2.17-.28a5.67,5.67,0,0,0-2.2-.82,79.68,79.68,0,0,0-18.3-1.37,19.09,19.09,0,0,0-5.51,1.4c-1.75.64-3.46,1.47-5.42,1.25a6.25,6.25,0,0,0-4,.94,2.23,2.23,0,0,1-1.45.38c-1.83-.19-3.09.92-4.43,1.86-.28.2-.68.42,0,.66.45.16.28.48.06.74s-.24.2-.33.33c-.32.42-1.14.65-1,1.19s.91.16,1.38.23c.28,0,.63,0,.67.36a.7.7,0,0,1-.59.77c-1,0-2.12.74-3-.47-.28-.4-.8-.17-1.21-.22s-.87.13-1.05-.3.26-.69.49-1,.55-.63.84-1c-1.27-.62-1.28-.68-.26-1.58,1.26-1.11,2.45-2.35,4.38-2.05a.82.82,0,0,0,.55-.15c1.43-1.32,3.2-1,4.9-1.05a3.51,3.51,0,0,0,2.8-1.44c.09-.12.22-.29.2-.39-.22-.84-.23-.84.72-1.13.26-.08.55-.1.71-.38-.32-.48-1,0-1.39-.6a6,6,0,0,1,2.78-.57c4.77-.09,9.53-.67,14.3-.37a3.78,3.78,0,0,1,2.64.73c.33.31.83.21,1.25.18a20.13,20.13,0,0,1,9.08,1.41,3.42,3.42,0,0,0,1.38.16c2.33-.05,4.39.9,6.5,1.67.31.11.77.26.66.68s-.52.25-.82.28a4.5,4.5,0,0,0-1.59.17c.25.51,1.38,1.26-.58,1.29C80.15,26,81,27.35,82.83,27.3c1.26,0,1.81,1.36,2.55,2.24.21.27,0,.53-.32.59a2.92,2.92,0,0,0-1,.27c.67.11,1.38.78,1.93-.36.27-.54,2.67-.41,3.07.09s.3.79-.34.87a5.49,5.49,0,0,0-.58,0c-.48.13-1.16-.34-1.43.35-.2.49.8,1.8,1.41,1.94.19,0,.39,0,.57.09.49.19.49.3,0,1.09.56.09,1,.25,1.44-.36s2.08-.53,2.53-.19a.64.64,0,0,1,.29.6.47.47,0,0,1-.51.4,1.64,1.64,0,0,0-1.65,1.34,2.29,2.29,0,0,1-2.77,1,.65.65,0,0,1-.45-.83c.07-.24.4-.5-.08-.62a.66.66,0,0,0-.82.28c-.19.34-.42.65-.63,1a2.62,2.62,0,0,1-2.85,1.08c-.39-.05-.76-.17-.52-.65s.53-1.11.35-1.52-1-.08-1.75-.59a8.9,8.9,0,0,0,3.18-.8c.81-.35.76-.62.28-1.14a19,19,0,0,1-1.16-1.88,1.24,1.24,0,0,0-1.82-.46c-.56.35.16.81.38,1.21C82.68,33.42,83.72,33.4,84.72,33.47Z"/><path class="cls-1" d="M26.67,46c-.21-.35-.54-.22-.78-.33s-.39-.32-.25-.56c.26-.44.75-.35,1.17-.33s1-.17,1.09.39c.21,1.26,1.38.91,2.05,1.41-.58-.55-.74-1.32-1.21-1.92-.35-.44-.19-.92.47-1a1.89,1.89,0,0,0,1.06-.43c.19-.17.56-.2.47-.58-.06-.22-.28-.26-.48-.27s-.6-.07-.66.31c-.21,1.26-1.17.72-1.86.78-.28,0-.58-.09-.59-.44s.31-.49.63-.53.61,0,1.06-.09c-.26-.43-.83-.61-.62-1.19s.34-.85.88-1A.6.6,0,0,0,29,39.09c-.19,0-.46-.06-.54-.18-.21-.34-.72-.6-.58-1s.61-.23.94-.26a2,2,0,0,1,2.24.84c.31.47,1.18.52,1.57,1.14.12.19.66.17.89-.19-.07-.28-.28-.29-.47-.33s-.55-.14-.53-.5A.58.58,0,0,1,33,38c.84,0,1.61-.33,2.48.42.57.49,1.11,1.51,2.22,1.27.17,0,.43,0,.43.26s-.26.36-.49.4a7.82,7.82,0,0,0-1.86.22c-.38.15-.8.26-.78.74s.48.53.86.6H36c.44.12,1.28-.24,1.25.44s-.93.39-1.45.49a.91.91,0,0,1-.57-.06c-1.07-.74-1.7-.42-2,.86.8-.21,1.51-.79,2.39-.61.31.07.68,0,.74.43s-.29.5-.61.55a.78.78,0,0,0-.62.43,1.54,1.54,0,0,1-2.63.11c-.3-.43-.67-.69-1-.43-.58.41.13.59.28.88a4.06,4.06,0,0,0,.25.64c.28.41,1.35.43.74,1.24A2.64,2.64,0,0,1,30.67,48c-1.15,0-1.86,1-2.61,1.52a2.24,2.24,0,0,1-1.69.59,2.77,2.77,0,0,1-2.15-1.72c-.54-1.21.13-1.93,1.49-2C26.05,46.35,26.43,46.43,26.67,46Zm5.19-5.5c-.39.15-1,.15-.94.79,0,.45.39.56.74.57.63,0,.57-.51.65-.91S32.26,40.42,31.86,40.49Z"/><path class="cls-1" d="M68.54,87.15c1.11.32,2.16-.12,3.2.4a3.2,3.2,0,0,1-2.14.72c-3.27.22-6.54.63-9.78-.36a6.06,6.06,0,0,0-2.44-.14c-2.42.3-4.7-.63-7.07-.72-.12,0-.24-.15-.45-.28,1-.64,2.13,0,3.09-.5-.28-.43-.67-.3-1-.28a29.51,29.51,0,0,1-4.2-.25c-.26,0-.66-.07-.75-.23-.64-1.18-1.72-1-2.76-1-.34,0-.84,0-.84-.41s.53-.35.83-.34c1,0,2.09-.33,2.95.66.27.32.92.24,1.34,0,1.11-.62,2.29-.29,3.44-.3a.72.72,0,0,1,.75.46c.12.37-.39.3-.46.61a7.33,7.33,0,0,0,2.77.31c2.66,0,5.3.47,8,.42.41,0,1.18.41,1.11-.65,0-.15.65-.34,1-.52,0-.47-.85-.18-.68-.7s.67-.38,1-.34c.77.09,1.72-.44,2.24.67.14.28.67.12,1,0a6.64,6.64,0,0,1,3-.31c.26,0,.6,0,.61.38s-.32.44-.57.47c-.73.06-1.47.08-2.5.13,1,.73,1.94.44,2.78.53.36,0,.91-.18,1,.33s-.46.57-.8.73a6.07,6.07,0,0,1-2.2.21C69.57,86.88,69.09,86.7,68.54,87.15Z"/><path class="cls-1" d="M26.08,36.24c-.47-.44-1-.19-1.22-.52a.37.37,0,0,1,.48-.26c1.51.25,2.77-.74,4.22-.83.6,0,1-.66,1.33-1.21.65-1.09,1.24-1.15,2.3-.43a4.45,4.45,0,0,0,3,.89,5.9,5.9,0,0,1,.94,0c.33,0,.79-.05.81.45s-.36.67-.78.72a9.73,9.73,0,0,0-2,.39c-1,.36-1.72,1.14-2.68,1.56a5.51,5.51,0,0,1-2.21.48c-.34,0-.79.11-.86-.38s.23-.63.61-.73c.14,0,.32,0,.32-.37-1.21-.2-1.94.72-2.78,1.26A3.66,3.66,0,0,1,25,38c-.27,0-.57-.05-.67-.37s.18-.39.35-.54A2.85,2.85,0,0,1,26.08,36.24Z"/><path class="cls-1" d="M90.79,42.19c-.63-.64-1.64-1-.67-2.17.29-.34-.35-1-.92-1a2.31,2.31,0,0,1-1.65-.72c-.19-.2-.72-.1-.58-.56s.54-.25.83-.26a4,4,0,0,1,3,.9c.39.37.91.5,1.22-.17a.77.77,0,0,1,.88-.42c.54,0,1.33-.24,1.42.6s-.75.47-1.19.6a2.92,2.92,0,0,0-.41.23c.77.43,2.13.41,1.42,1.79-.32.06-.37-.16-.45-.33a.44.44,0,0,0-.66-.25.49.49,0,0,0-.37.41.66.66,0,0,0,.36.67c.41.27,1.38.18,1.12.87s-.89-.11-1.36-.1c-.24,0-.64-.16-.57.32s-.09.79-.59.77-1.44.3-1.78-.25C89.3,42.2,90.41,42.51,90.79,42.19Z"/><path class="cls-1" d="M47.83,83.32c-.95.18-1.5-.36-1.91-1.32a14,14,0,0,1-1.07-5c0-.75.19-1.21,1-1.16s1.59-.23,1.63,1a9.65,9.65,0,0,0,1.65,5.41C49.77,83.12,49.52,83.33,47.83,83.32Z"/><path class="cls-1" d="M92,46.82h.7c1.63,0,2,.58,1.64,2.19-.13.48-.37.78-.88.76a18.93,18.93,0,0,0-2.91.24c-.62.07-1.22.11-1.54-.71-.19-.51-.72-.34-1.1-.08a1.74,1.74,0,0,1-1.06.42c-.41,0-.85-.1-.93-.55s.47-.3.64-.48a4.8,4.8,0,0,1,2.52-1.26A7.81,7.81,0,0,1,92,46.82Z"/><path class="cls-1" d="M68.1,23.78c.6.34,1.7-.08,2,1.12,0,.21.5.33.78.46a1.49,1.49,0,0,1,1,1.17c0,.46.25.71.74.71.22,0,.52,0,.49.34s-.31.32-.55.31a25.77,25.77,0,0,1-7.08-1.69c-.6-.23-1.08-.59-1-1.28s.79-.61,1.25-.53C66.64,24.52,67.21,23.76,68.1,23.78Z"/><path class="cls-1" d="M74.23,77.5A12,12,0,0,1,73.13,82a2,2,0,0,1-2.68,1.21c-.66-.2-.53-.58-.23-1A8.36,8.36,0,0,0,71.76,77c0-1.06.53-1.2,1.4-1.2s1.13.49,1.07,1.27C74.22,77.18,74.23,77.34,74.23,77.5Z"/><path class="cls-1" d="M91.94,54.91c-1.2.18-2.36.16-3.2-1,.71,0,1.45,0,2.19,0,.26,0,.61,0,.58-.39s-.32-.31-.55-.3a3.53,3.53,0,0,0-1.95.2.91.91,0,0,1-.57.09c-.42-.06-1.14.25-1.16-.38,0-.48.69-.28,1.09-.36s1.48.22.51-.8a.69.69,0,0,1,.18-1.11c.59-.31,1.58-.48,1.82.1.45,1.07,1.21.71,1.92.81s1.57-.36,1.56.67c0,.84-.22,1.87-1.51,1.79a.91.91,0,0,0-.94.73Z"/><path class="cls-1" d="M26.61,52.67c0-.11,0-.16,0-.18-.39-.36-1.19-.35-1.07-1.18a.54.54,0,0,1,.57-.48c.7,0,1.51-.36,2,.51a1.26,1.26,0,0,0,.18.3c.47.43,1.9.38,1,1.49-.37.45-.54,1.4-1.53,1.32-.32,0-.43.56-.89.65a2.12,2.12,0,0,1-2.62-2.56c0-.29.14-.52.46-.59a.69.69,0,0,1,.8.35C25.73,52.8,26.07,53,26.61,52.67Z"/><path class="cls-1" d="M92.21,46.75c-.59-.18-1.72.53-1.85-.92,0-.08-.24-.18-.38-.21-.39-.09-1,0-.88-.62s.71-.34,1.11-.37c.69-.06,1.4.19,1.69-.89.11-.39,1.09-.59,1.7-.78a.57.57,0,0,1,.74.55c.06.82.08,1.63.08,2.45a.72.72,0,0,1-.8.79Z"/><path class="cls-1" d="M39.7,72.12a9.8,9.8,0,0,0,3.48.81c.34,0,1.27,2.32,1.15,2.69-.2.67-.77.57-1.26.55s-1.28.22-1.31-.56-1.2-1.19-1.06-2.2c0-.24-.69-.09-1.07-.15s-1.21.24-1.22-.5S39.17,72.32,39.7,72.12Z"/><path class="cls-1" d="M29.34,30.77H30c.27,0,.59,0,.69.32s-.13.5-.32.7-.63.57-.92.88-.54.55.08.87.21.65-.21.74a4.58,4.58,0,0,1-3.13-.55c-.34-.18-.17-.46-.08-.71A3.76,3.76,0,0,1,29.34,30.77Z"/><path class="cls-1" d="M46.15,68.37c-.4-.08-1.07.19-1.14-.57s.44-.85,1-.86.83-.2.78-.77c-.11-1.19.8-.79,1.36-.84s1.3.06,1.36.91a.94.94,0,0,1-1,1.12c-.32,0-.65,0-.79.39C47.4,68.46,46.78,68.36,46.15,68.37Z"/><path class="cls-1" d="M68.51,72.79c.71-.08,1.25.1,1.38.9a.73.73,0,0,0,.53.57c.63.21.65.72.59,1.25s-.42.62-.84.61-1.28.24-1.53-.5a1.68,1.68,0,0,0-.84-1.14,1,1,0,0,1-.38-1.26C67.57,72.68,68.11,72.82,68.51,72.79Z"/><path class="cls-1" d="M44.28,70.33c1.18,0,1.77-1.5,3.08-1.2.29.06.77,0,.85.25.21.85.85.83,1.5.93s.55.53.36.92c-.37.74-1.08.43-1.67.47-.43,0-.93,0-.93-.6s-.45-.67-.94-.57A3.15,3.15,0,0,1,44.28,70.33Z"/><path class="cls-1" d="M70.64,65.31a1.6,1.6,0,0,1,1.82.76c.27.51.41,1.09-.44,1.23a1.08,1.08,0,0,0-.79.56c-.56.8-1.4.56-2.09.27s-.39-1,.22-1.2c.38-.12.88-.11.62-.69C69.46,65.08,70.37,65.38,70.64,65.31Z"/><path class="cls-1" d="M69.32,70.24c.53-.35,1.09-.31,1.42-.88s1.82-.39,2.15.23a1.1,1.1,0,0,0,1.13.6c.54,0,1.14,0,1.3.7.06.29,0,.6-.29.67-.65.13-1.6.39-1.85-.2-.55-1.29-1.41-.91-2.32-.8A1.63,1.63,0,0,1,69.32,70.24Z"/><path class="cls-1" d="M51.06,61.61c.4,0,.95-.17,1.12.35s-.43.43-.67.64a1.52,1.52,0,0,0-.32.46,1.82,1.82,0,0,1-2.31,1c-.3-.09-.49-.26-.49-.56s0-1,.42-1.15C49.54,62.07,50.16,61.39,51.06,61.61Z"/><path class="cls-1" d="M71.72,64.06c-.58,0-1.1,0-1.3-.79s.08-1,.68-1.33a2.91,2.91,0,0,1,1.66-.37c.27,0,.56,0,.68.35s-.11.42-.32.53a.54.54,0,0,0-.29.68C73,64,72.4,64.07,71.72,64.06Z"/><path class="cls-1" d="M42.84,65.67c-.4-.07-1,.24-1.16-.41s.48-.68,1-.89a4.18,4.18,0,0,1,2.5-.67c.31.06.67,0,.73.44s-.27.64-.65.63C44.29,64.75,44,66.2,42.84,65.67Z"/><path class="cls-1" d="M65.83,65.68c-.69-.06-1.29.07-1.43-.62s.63-.52.89-.8a2.2,2.2,0,0,1,2-.58c.33,0,.62.16.65.54s-.24.49-.52.5C66.7,64.77,66.65,66.17,65.83,65.68Z"/><path class="cls-1" d="M49.85,69.53c-.34-.08-1.14.25-1.08-.73s.83-.86,1.47-.85,1.22-.17,1.2.68S50.71,69.58,49.85,69.53Z"/><path class="cls-1" d="M40.23,82.89c.24,0,.47,0,.7,0,.59,0,1.21.3,1.17.88s-.75.34-1.17.37a7.54,7.54,0,0,1-1.5,0,.79.79,0,0,1-.76-.75c0-.6.52-.43.87-.47a5.3,5.3,0,0,1,.69,0Z"/><path class="cls-1" d="M74.63,69.48c-.84,0-1.47,0-1.56-.84s.52-.72,1-.74c.69,0,1.39,0,1.44.91S74.91,69.42,74.63,69.48Z"/><path class="cls-1" d="M62.17,84.11c-.36-.12-1.16.27-1.2-.37s.73-.95,1.38-.88,1.59-.44,1.64.45-1,.76-1.63.8Z"/><path class="cls-1" d="M45,71.34c.45.1,1.24-.23,1.22.62s-.76.66-1.28.64-1.27.25-1.25-.6S44.43,71.39,45,71.34Z"/><path class="cls-1" d="M70.76,72.57c-.56,0-1.26.05-1.23-.72s.73-.52,1.19-.55,1.13,0,1.15.65S71.19,72.49,70.76,72.57Z"/><path class="cls-1" d="M85,51c-.42-.07-1.05.14-1.06-.58s.63-.78,1.18-.77,1-.09,1.07.6S85.55,51,85,51Z"/><path class="cls-1" d="M79.85,37c.42.1,1.31-.23,1.31.43s-.93.36-1.45.47a1,1,0,0,1-.35,0c-.34,0-.83,0-.84-.44s.54-.4.9-.45A2.73,2.73,0,0,1,79.85,37Z"/><path class="cls-1" d="M29.43,55.8c-.3,0-.45,0-.61,0-.45,0-.95,0-.95-.61s.55-.41.91-.46a2.46,2.46,0,0,1,.47,0c.5,0,1.2,0,1.22.59C30.49,56.16,29.66,55.57,29.43,55.8Z"/><path class="cls-1" d="M65.61,72.14c.45.07,1.1-.1,1.15.51s-.61.53-1,.54-1.08.14-1.13-.48S65.22,72.24,65.61,72.14Z"/><path class="cls-1" d="M86.6,56.41c-.35-.15-1.1.24-1-.48s.86-.63,1.42-.61,1.14-.22,1.07.48S87.17,56.32,86.6,56.41Z"/><path class="cls-1" d="M34.53,46.36c-.4-.13-1.11.12-1.12-.53s.68-.52,1.11-.51,1.11-.15,1.12.5S35,46.29,34.53,46.36Z"/><path class="cls-1" d="M35.14,46.45c.47.11,1.18-.14,1.22.46s-.66.51-1.08.5-1.1.23-1.11-.46S34.81,46.57,35.14,46.45Z"/><path class="cls-1" d="M91.91,55a2.37,2.37,0,0,1,1.92-.29c.4.07.67.39.34.75s-1,.24-1.56.25-.71-.27-.67-.75Z"/><path class="cls-1" d="M31.8,53.72a.79.79,0,0,1-.92.49c-.35,0-.8-.17-.73-.57s.62-.32,1-.33S31.76,53.27,31.8,53.72Z"/><path class="cls-1" d="M65,55.66a3.34,3.34,0,0,1,2.1-.29.32.32,0,0,1,.33.38.45.45,0,0,1-.4.36A3,3,0,0,1,65,55.66Z"/><path class="cls-1" d="M26.91,82.28l3.53,3.42-1.17,1.22-2.2-2.13-2.29,2.37,1.72,1.67-1.17,1.22L23.6,88.38,20,92.09,18.68,90.8Z"/><path class="cls-1" d="M27.38,94.78l5-7.53,1.55,1-5,7.64c-.47.71-.34,1.16.15,1.48s1,.27,1.42-.44l5.06-7.64,1.49,1-5,7.53c-1,1.58-2.43,2-3.95,1S26.34,96.36,27.38,94.78Z"/><path class="cls-1" d="M39.51,91.66l2.17.87-1,7.25h0l2.66-6.56,1.54.62-4.44,11-1.77-.72,1.17-8.84,0,0-3.24,8-1.54-.62Z"/><path class="cls-1" d="M45.92,103.49l1.15-6.11c.35-1.86,1.48-2.74,3.28-2.41s2.52,1.58,2.17,3.44l-.19,1-1.73-.32L50.81,98c.16-.83-.15-1.22-.73-1.33s-1,.14-1.16,1L47.72,104c-.15.83.16,1.2.74,1.31s1-.13,1.16-1l.42-2.27-.91-.17.31-1.66,2.64.5-.71,3.8c-.35,1.86-1.48,2.74-3.28,2.41S45.57,105.35,45.92,103.49Z"/><path class="cls-1" d="M56,95.83l1.85.06-.36,11.82-1.86-.06Z"/><path class="cls-1" d="M65.85,95.28l4.79-1.11L71,95.82l-3,.69.74,3.21,2.34-.54.38,1.65-2.34.54,1.16,5-1.81.41Z"/><path class="cls-1" d="M76.52,101.7,74,96c-.76-1.73-.28-3.12,1.4-3.86s3-.14,3.77,1.6l2.5,5.7c.76,1.73.28,3.12-1.4,3.85S77.28,103.43,76.52,101.7ZM80,100.29l-2.59-5.92c-.34-.77-.8-.91-1.35-.68s-.75.68-.41,1.46l2.59,5.91c.33.78.8.92,1.35.69S80.38,101.07,80,100.29Z"/><path class="cls-1" d="M85.55,97.29,82,92.18c-1.08-1.56-.88-3,.62-4.06s2.94-.71,4,.84l3.55,5.11c1.08,1.56.87,3-.63,4.05S86.63,98.84,85.55,97.29Zm3.18-2.06-3.68-5.31c-.48-.69-1-.74-1.46-.41s-.61.82-.12,1.51l3.67,5.3c.49.7,1,.75,1.46.41S89.21,95.92,88.73,95.23Z"/><path class="cls-1" d="M87.2,84.81l2-2c1.29-1.34,2.67-1.27,4,0L97.5,87c1.36,1.32,1.47,2.69.17,4l-2,2Zm9.23,5c.42-.42.44-.89-.16-1.48l-4.42-4.29c-.6-.59-1.07-.54-1.48-.12l-.66.68,6.06,5.89Z"/><path class="cls-1" d="M58.25,116.5A58.25,58.25,0,1,1,116.5,58.25,58.31,58.31,0,0,1,58.25,116.5ZM58.25,1A57.25,57.25,0,1,0,115.5,58.25,57.31,57.31,0,0,0,58.25,1Z"/></svg>